<svg width="285.75mm" height="114.3mm" viewBox="0 0 285.75 114.3" xmlns="http://www.w3.org/2000/svg"><g id="svgGroup" stroke-linecap="round" fill-rule="evenodd" font-size="9pt" stroke="#000" stroke-width="0.25mm" fill="none" style="stroke:#000;stroke-width:0.25mm;fill:none"><path d="M 0 114.3 L 285.75 114.3 L 285.75 0 L 0 0 L 0 114.3 Z M 3.025 21.575 L 16.025 21.575 A 0.5 0.5 0 0 1 16.525 22.075 L 16.525 35.075 A 0.5 0.5 0 0 1 16.025 35.575 L 3.025 35.575 A 0.5 0.5 0 0 1 2.525 35.075 L 2.525 22.075 A 0.5 0.5 0 0 1 3.025 21.575 Z M 22.075 21.575 L 35.075 21.575 A 0.5 0.5 0 0 1 35.575 22.075 L 35.575 35.075 A 0.5 0.5 0 0 1 35.075 35.575 L 22.075 35.575 A 0.5 0.5 0 0 1 21.575 35.075 L 21.575 22.075 A 0.5 0.5 0 0 1 22.075 21.575 Z M 41.125 21.575 L 54.125 21.575 A 0.5 0.5 0 0 1 54.625 22.075 L 54.625 35.075 A 0.5 0.5 0 0 1 54.125 35.575 L 41.125 35.575 A 0.5 0.5 0 0 1 40.625 35.075 L 40.625 22.075 A 0.5 0.5 0 0 1 41.125 21.575 Z M 60.175 21.575 L 73.175 21.575 A 0.5 0.5 0 0 1 73.675 22.075 L 73.675 35.075 A 0.5 0.5 0 0 1 73.175 35.575 L 60.175 35.575 A 0.5 0.5 0 0 1 59.675 35.075 L 59.675 22.075 A 0.5 0.5 0 0 1 60.175 21.575 Z M 79.225 21.575 L 92.225 21.575 A 0.5 0.5 0 0 1 92.725 22.075 L 92.725 35.075 A 0.5 0.5 0 0 1 92.225 35.575 L 79.225 35.575 A 0.5 0.5 0 0 1 78.725 35.075 L 78.725 22.075 A 0.5 0.5 0 0 1 79.225 21.575 Z M 98.275 21.575 L 111.275 21.575 A 0.5 0.5 0 0 1 111.775 22.075 L 111.775 35.075 A 0.5 0.5 0 0 1 111.275 35.575 L 98.275 35.575 A 0.5 0.5 0 0 1 97.775 35.075 L 97.775 22.075 A 0.5 0.5 0 0 1 98.275 21.575 Z M 136.375 21.575 L 149.375 21.575 A 0.5 0.5 0 0 1 149.875 22.075 L 149.875 35.075 A 0.5 0.5 0 0 1 149.375 35.575 L 136.375 35.575 A 0.5 0.5 0 0 1 135.875 35.075 L 135.875 22.075 A 0.5 0.5 0 0 1 136.375 21.575 Z M 155.425 21.575 L 168.425 21.575 A 0.5 0.5 0 0 1 168.925 22.075 L 168.925 35.075 A 0.5 0.5 0 0 1 168.425 35.575 L 155.425 35.575 A 0.5 0.5 0 0 1 154.925 35.075 L 154.925 22.075 A 0.5 0.5 0 0 1 155.425 21.575 Z M 174.475 21.575 L 187.475 21.575 A 0.5 0.5 0 0 1 187.975 22.075 L 187.975 35.075 A 0.5 0.5 0 0 1 187.475 35.575 L 174.475 35.575 A 0.5 0.5 0 0 1 173.975 35.075 L 173.975 22.075 A 0.5 0.5 0 0 1 174.475 21.575 Z M 193.525 21.575 L 206.525 21.575 A 0.5 0.5 0 0 1 207.025 22.075 L 207.025 35.075 A 0.5 0.5 0 0 1 206.525 35.575 L 193.525 35.575 A 0.5 0.5 0 0 1 193.025 35.075 L 193.025 22.075 A 0.5 0.5 0 0 1 193.525 21.575 Z M 212.575 21.575 L 225.575 21.575 A 0.5 0.5 0 0 1 226.075 22.075 L 226.075 35.075 A 0.5 0.5 0 0 1 225.575 35.575 L 212.575 35.575 A 0.5 0.5 0 0 1 212.075 35.075 L 212.075 22.075 A 0.5 0.5 0 0 1 212.575 21.575 Z M 231.625 21.575 L 244.625 21.575 A 0.5 0.5 0 0 1 245.125 22.075 L 245.125 35.075 A 0.5 0.5 0 0 1 244.625 35.575 L 231.625 35.575 A 0.5 0.5 0 0 1 231.125 35.075 L 231.125 22.075 A 0.5 0.5 0 0 1 231.625 21.575 Z M 260.2 21.575 L 273.2 21.575 A 0.5 0.5 0 0 1 273.7 22.075 L 273.7 35.075 A 0.5 0.5 0 0 1 273.2 35.575 L 260.2 35.575 A 0.5 0.5 0 0 1 259.7 35.075 L 259.7 22.075 A 0.5 0.5 0 0 1 260.2 21.575 Z M 22.075 78.725 L 35.075 78.725 A 0.5 0.5 0 0 1 35.575 79.225 L 35.575 92.225 A 0.5 0.5 0 0 1 35.075 92.725 L 22.075 92.725 A 0.5 0.5 0 0 1 21.575 92.225 L 21.575 79.225 A 0.5 0.5 0 0 1 22.075 78.725 Z M 22.075 97.775 L 35.075 97.775 A 0.5 0.5 0 0 1 35.575 98.275 L 35.575 111.275 A 0.5 0.5 0 0 1 35.075 111.775 L 22.075 111.775 A 0.5 0.5 0 0 1 21.575 111.275 L 21.575 98.275 A 0.5 0.5 0 0 1 22.075 97.775 Z M 12.55 40.625 L 25.55 40.625 A 0.5 0.5 0 0 1 26.05 41.125 L 26.05 54.125 A 0.5 0.5 0 0 1 25.55 54.625 L 12.55 54.625 A 0.5 0.5 0 0 1 12.05 54.125 L 12.05 41.125 A 0.5 0.5 0 0 1 12.55 40.625 Z M 41.125 40.625 L 54.125 40.625 A 0.5 0.5 0 0 1 54.625 41.125 L 54.625 54.125 A 0.5 0.5 0 0 1 54.125 54.625 L 41.125 54.625 A 0.5 0.5 0 0 1 40.625 54.125 L 40.625 41.125 A 0.5 0.5 0 0 1 41.125 40.625 Z M 60.175 40.625 L 73.175 40.625 A 0.5 0.5 0 0 1 73.675 41.125 L 73.675 54.125 A 0.5 0.5 0 0 1 73.175 54.625 L 60.175 54.625 A 0.5 0.5 0 0 1 59.675 54.125 L 59.675 41.125 A 0.5 0.5 0 0 1 60.175 40.625 Z M 79.225 40.625 L 92.225 40.625 A 0.5 0.5 0 0 1 92.725 41.125 L 92.725 54.125 A 0.5 0.5 0 0 1 92.225 54.625 L 79.225 54.625 A 0.5 0.5 0 0 1 78.725 54.125 L 78.725 41.125 A 0.5 0.5 0 0 1 79.225 40.625 Z M 98.275 40.625 L 111.275 40.625 A 0.5 0.5 0 0 1 111.775 41.125 L 111.775 54.125 A 0.5 0.5 0 0 1 111.275 54.625 L 98.275 54.625 A 0.5 0.5 0 0 1 97.775 54.125 L 97.775 41.125 A 0.5 0.5 0 0 1 98.275 40.625 Z M 136.375 40.625 L 149.375 40.625 A 0.5 0.5 0 0 1 149.875 41.125 L 149.875 54.125 A 0.5 0.5 0 0 1 149.375 54.625 L 136.375 54.625 A 0.5 0.5 0 0 1 135.875 54.125 L 135.875 41.125 A 0.5 0.5 0 0 1 136.375 40.625 Z M 155.425 40.625 L 168.425 40.625 A 0.5 0.5 0 0 1 168.925 41.125 L 168.925 54.125 A 0.5 0.5 0 0 1 168.425 54.625 L 155.425 54.625 A 0.5 0.5 0 0 1 154.925 54.125 L 154.925 41.125 A 0.5 0.5 0 0 1 155.425 40.625 Z M 174.475 40.625 L 187.475 40.625 A 0.5 0.5 0 0 1 187.975 41.125 L 187.975 54.125 A 0.5 0.5 0 0 1 187.475 54.625 L 174.475 54.625 A 0.5 0.5 0 0 1 173.975 54.125 L 173.975 41.125 A 0.5 0.5 0 0 1 174.475 40.625 Z M 193.525 40.625 L 206.525 40.625 A 0.5 0.5 0 0 1 207.025 41.125 L 207.025 54.125 A 0.5 0.5 0 0 1 206.525 54.625 L 193.525 54.625 A 0.5 0.5 0 0 1 193.025 54.125 L 193.025 41.125 A 0.5 0.5 0 0 1 193.525 40.625 Z M 212.575 40.625 L 225.575 40.625 A 0.5 0.5 0 0 1 226.075 41.125 L 226.075 54.125 A 0.5 0.5 0 0 1 225.575 54.625 L 212.575 54.625 A 0.5 0.5 0 0 1 212.075 54.125 L 212.075 41.125 A 0.5 0.5 0 0 1 212.575 40.625 Z M 231.625 40.625 L 244.625 40.625 A 0.5 0.5 0 0 1 245.125 41.125 L 245.125 54.125 A 0.5 0.5 0 0 1 244.625 54.625 L 231.625 54.625 A 0.5 0.5 0 0 1 231.125 54.125 L 231.125 41.125 A 0.5 0.5 0 0 1 231.625 40.625 Z M 250.675 40.625 L 263.675 40.625 A 0.5 0.5 0 0 1 264.175 41.125 L 264.175 54.125 A 0.5 0.5 0 0 1 263.675 54.625 L 250.675 54.625 A 0.5 0.5 0 0 1 250.175 54.125 L 250.175 41.125 A 0.5 0.5 0 0 1 250.675 40.625 Z M 269.725 40.625 L 282.725 40.625 A 0.5 0.5 0 0 1 283.225 41.125 L 283.225 54.125 A 0.5 0.5 0 0 1 282.725 54.625 L 269.725 54.625 A 0.5 0.5 0 0 1 269.225 54.125 L 269.225 41.125 A 0.5 0.5 0 0 1 269.725 40.625 Z M 12.55 59.675 L 25.55 59.675 A 0.5 0.5 0 0 1 26.05 60.175 L 26.05 73.175 A 0.5 0.5 0 0 1 25.55 73.675 L 12.55 73.675 A 0.5 0.5 0 0 1 12.05 73.175 L 12.05 60.175 A 0.5 0.5 0 0 1 12.55 59.675 Z M 41.125 59.675 L 54.125 59.675 A 0.5 0.5 0 0 1 54.625 60.175 L 54.625 73.175 A 0.5 0.5 0 0 1 54.125 73.675 L 41.125 73.675 A 0.5 0.5 0 0 1 40.625 73.175 L 40.625 60.175 A 0.5 0.5 0 0 1 41.125 59.675 Z M 60.175 59.675 L 73.175 59.675 A 0.5 0.5 0 0 1 73.675 60.175 L 73.675 73.175 A 0.5 0.5 0 0 1 73.175 73.675 L 60.175 73.675 A 0.5 0.5 0 0 1 59.675 73.175 L 59.675 60.175 A 0.5 0.5 0 0 1 60.175 59.675 Z M 79.225 59.675 L 92.225 59.675 A 0.5 0.5 0 0 1 92.725 60.175 L 92.725 73.175 A 0.5 0.5 0 0 1 92.225 73.675 L 79.225 73.675 A 0.5 0.5 0 0 1 78.725 73.175 L 78.725 60.175 A 0.5 0.5 0 0 1 79.225 59.675 Z M 98.275 59.675 L 111.275 59.675 A 0.5 0.5 0 0 1 111.775 60.175 L 111.775 73.175 A 0.5 0.5 0 0 1 111.275 73.675 L 98.275 73.675 A 0.5 0.5 0 0 1 97.775 73.175 L 97.775 60.175 A 0.5 0.5 0 0 1 98.275 59.675 Z M 136.375 59.675 L 149.375 59.675 A 0.5 0.5 0 0 1 149.875 60.175 L 149.875 73.175 A 0.5 0.5 0 0 1 149.375 73.675 L 136.375 73.675 A 0.5 0.5 0 0 1 135.875 73.175 L 135.875 60.175 A 0.5 0.5 0 0 1 136.375 59.675 Z M 155.425 59.675 L 168.425 59.675 A 0.5 0.5 0 0 1 168.925 60.175 L 168.925 73.175 A 0.5 0.5 0 0 1 168.425 73.675 L 155.425 73.675 A 0.5 0.5 0 0 1 154.925 73.175 L 154.925 60.175 A 0.5 0.5 0 0 1 155.425 59.675 Z M 174.475 59.675 L 187.475 59.675 A 0.5 0.5 0 0 1 187.975 60.175 L 187.975 73.175 A 0.5 0.5 0 0 1 187.475 73.675 L 174.475 73.675 A 0.5 0.5 0 0 1 173.975 73.175 L 173.975 60.175 A 0.5 0.5 0 0 1 174.475 59.675 Z M 193.525 59.675 L 206.525 59.675 A 0.5 0.5 0 0 1 207.025 60.175 L 207.025 73.175 A 0.5 0.5 0 0 1 206.525 73.675 L 193.525 73.675 A 0.5 0.5 0 0 1 193.025 73.175 L 193.025 60.175 A 0.5 0.5 0 0 1 193.525 59.675 Z M 212.575 59.675 L 225.575 59.675 A 0.5 0.5 0 0 1 226.075 60.175 L 226.075 73.175 A 0.5 0.5 0 0 1 225.575 73.675 L 212.575 73.675 A 0.5 0.5 0 0 1 212.075 73.175 L 212.075 60.175 A 0.5 0.5 0 0 1 212.575 59.675 Z M 231.625 59.675 L 244.625 59.675 A 0.5 0.5 0 0 1 245.125 60.175 L 245.125 73.175 A 0.5 0.5 0 0 1 244.625 73.675 L 231.625 73.675 A 0.5 0.5 0 0 1 231.125 73.175 L 231.125 60.175 A 0.5 0.5 0 0 1 231.625 59.675 Z M 260.2 59.675 L 273.2 59.675 A 0.5 0.5 0 0 1 273.7 60.175 L 273.7 73.175 A 0.5 0.5 0 0 1 273.2 73.675 L 260.2 73.675 A 0.5 0.5 0 0 1 259.7 73.175 L 259.7 60.175 A 0.5 0.5 0 0 1 260.2 59.675 Z M 60.175 78.725 L 73.175 78.725 A 0.5 0.5 0 0 1 73.675 79.225 L 73.675 92.225 A 0.5 0.5 0 0 1 73.175 92.725 L 60.175 92.725 A 0.5 0.5 0 0 1 59.675 92.225 L 59.675 79.225 A 0.5 0.5 0 0 1 60.175 78.725 Z M 79.225 78.725 L 92.225 78.725 A 0.5 0.5 0 0 1 92.725 79.225 L 92.725 92.225 A 0.5 0.5 0 0 1 92.225 92.725 L 79.225 92.725 A 0.5 0.5 0 0 1 78.725 92.225 L 78.725 79.225 A 0.5 0.5 0 0 1 79.225 78.725 Z M 98.275 78.725 L 111.275 78.725 A 0.5 0.5 0 0 1 111.775 79.225 L 111.775 92.225 A 0.5 0.5 0 0 1 111.275 92.725 L 98.275 92.725 A 0.5 0.5 0 0 1 97.775 92.225 L 97.775 79.225 A 0.5 0.5 0 0 1 98.275 78.725 Z M 136.375 78.725 L 149.375 78.725 A 0.5 0.5 0 0 1 149.875 79.225 L 149.875 92.225 A 0.5 0.5 0 0 1 149.375 92.725 L 136.375 92.725 A 0.5 0.5 0 0 1 135.875 92.225 L 135.875 79.225 A 0.5 0.5 0 0 1 136.375 78.725 Z M 155.425 78.725 L 168.425 78.725 A 0.5 0.5 0 0 1 168.925 79.225 L 168.925 92.225 A 0.5 0.5 0 0 1 168.425 92.725 L 155.425 92.725 A 0.5 0.5 0 0 1 154.925 92.225 L 154.925 79.225 A 0.5 0.5 0 0 1 155.425 78.725 Z M 174.475 78.725 L 187.475 78.725 A 0.5 0.5 0 0 1 187.975 79.225 L 187.975 92.225 A 0.5 0.5 0 0 1 187.475 92.725 L 174.475 92.725 A 0.5 0.5 0 0 1 173.975 92.225 L 173.975 79.225 A 0.5 0.5 0 0 1 174.475 78.725 Z M 193.525 78.725 L 206.525 78.725 A 0.5 0.5 0 0 1 207.025 79.225 L 207.025 92.225 A 0.5 0.5 0 0 1 206.525 92.725 L 193.525 92.725 A 0.5 0.5 0 0 1 193.025 92.225 L 193.025 79.225 A 0.5 0.5 0 0 1 193.525 78.725 Z M 212.575 78.725 L 225.575 78.725 A 0.5 0.5 0 0 1 226.075 79.225 L 226.075 92.225 A 0.5 0.5 0 0 1 225.575 92.725 L 212.575 92.725 A 0.5 0.5 0 0 1 212.075 92.225 L 212.075 79.225 A 0.5 0.5 0 0 1 212.575 78.725 Z M 231.625 78.725 L 244.625 78.725 A 0.5 0.5 0 0 1 245.125 79.225 L 245.125 92.225 A 0.5 0.5 0 0 1 244.625 92.725 L 231.625 92.725 A 0.5 0.5 0 0 1 231.125 92.225 L 231.125 79.225 A 0.5 0.5 0 0 1 231.625 78.725 Z M 260.2 78.725 L 273.2 78.725 A 0.5 0.5 0 0 1 273.7 79.225 L 273.7 92.225 A 0.5 0.5 0 0 1 273.2 92.725 L 260.2 92.725 A 0.5 0.5 0 0 1 259.7 92.225 L 259.7 79.225 A 0.5 0.5 0 0 1 260.2 78.725 Z M 41.125 97.775 L 54.125 97.775 A 0.5 0.5 0 0 1 54.625 98.275 L 54.625 111.275 A 0.5 0.5 0 0 1 54.125 111.775 L 41.125 111.775 A 0.5 0.5 0 0 1 40.625 111.275 L 40.625 98.275 A 0.5 0.5 0 0 1 41.125 97.775 Z M 60.175 97.775 L 73.175 97.775 A 0.5 0.5 0 0 1 73.675 98.275 L 73.675 111.275 A 0.5 0.5 0 0 1 73.175 111.775 L 60.175 111.775 A 0.5 0.5 0 0 1 59.675 111.275 L 59.675 98.275 A 0.5 0.5 0 0 1 60.175 97.775 Z M 136.375 97.775 L 149.375 97.775 A 0.5 0.5 0 0 1 149.875 98.275 L 149.875 111.275 A 0.5 0.5 0 0 1 149.375 111.775 L 136.375 111.775 A 0.5 0.5 0 0 1 135.875 111.275 L 135.875 98.275 A 0.5 0.5 0 0 1 136.375 97.775 Z M 212.575 97.775 L 225.575 97.775 A 0.5 0.5 0 0 1 226.075 98.275 L 226.075 111.275 A 0.5 0.5 0 0 1 225.575 111.775 L 212.575 111.775 A 0.5 0.5 0 0 1 212.075 111.275 L 212.075 98.275 A 0.5 0.5 0 0 1 212.575 97.775 Z M 231.625 97.775 L 244.625 97.775 A 0.5 0.5 0 0 1 245.125 98.275 L 245.125 111.275 A 0.5 0.5 0 0 1 244.625 111.775 L 231.625 111.775 A 0.5 0.5 0 0 1 231.125 111.275 L 231.125 98.275 A 0.5 0.5 0 0 1 231.625 97.775 Z M 250.675 97.775 L 263.675 97.775 A 0.5 0.5 0 0 1 264.175 98.275 L 264.175 111.275 A 0.5 0.5 0 0 1 263.675 111.775 L 250.675 111.775 A 0.5 0.5 0 0 1 250.175 111.275 L 250.175 98.275 A 0.5 0.5 0 0 1 250.675 97.775 Z M 269.725 97.775 L 282.725 97.775 A 0.5 0.5 0 0 1 283.225 98.275 L 283.225 111.275 A 0.5 0.5 0 0 1 282.725 111.775 L 269.725 111.775 A 0.5 0.5 0 0 1 269.225 111.275 L 269.225 98.275 A 0.5 0.5 0 0 1 269.725 97.775 Z M 12.55 2.525 L 25.55 2.525 A 0.5 0.5 0 0 1 26.05 3.025 L 26.05 16.025 A 0.5 0.5 0 0 1 25.55 16.525 L 12.55 16.525 A 0.5 0.5 0 0 1 12.05 16.025 L 12.05 3.025 A 0.5 0.5 0 0 1 12.55 2.525 Z M 60.175 2.525 L 73.175 2.525 A 0.5 0.5 0 0 1 73.675 3.025 L 73.675 16.025 A 0.5 0.5 0 0 1 73.175 16.525 L 60.175 16.525 A 0.5 0.5 0 0 1 59.675 16.025 L 59.675 3.025 A 0.5 0.5 0 0 1 60.175 2.525 Z M 79.225 2.525 L 92.225 2.525 A 0.5 0.5 0 0 1 92.725 3.025 L 92.725 16.025 A 0.5 0.5 0 0 1 92.225 16.525 L 79.225 16.525 A 0.5 0.5 0 0 1 78.725 16.025 L 78.725 3.025 A 0.5 0.5 0 0 1 79.225 2.525 Z M 136.375 2.525 L 149.375 2.525 A 0.5 0.5 0 0 1 149.875 3.025 L 149.875 16.025 A 0.5 0.5 0 0 1 149.375 16.525 L 136.375 16.525 A 0.5 0.5 0 0 1 135.875 16.025 L 135.875 3.025 A 0.5 0.5 0 0 1 136.375 2.525 Z M 155.425 2.525 L 168.425 2.525 A 0.5 0.5 0 0 1 168.925 3.025 L 168.925 16.025 A 0.5 0.5 0 0 1 168.425 16.525 L 155.425 16.525 A 0.5 0.5 0 0 1 154.925 16.025 L 154.925 3.025 A 0.5 0.5 0 0 1 155.425 2.525 Z M 174.475 2.525 L 187.475 2.525 A 0.5 0.5 0 0 1 187.975 3.025 L 187.975 16.025 A 0.5 0.5 0 0 1 187.475 16.525 L 174.475 16.525 A 0.5 0.5 0 0 1 173.975 16.025 L 173.975 3.025 A 0.5 0.5 0 0 1 174.475 2.525 Z M 3.025 97.775 L 16.025 97.775 A 0.5 0.5 0 0 1 16.525 98.275 L 16.525 111.275 A 0.5 0.5 0 0 1 16.025 111.775 L 3.025 111.775 A 0.5 0.5 0 0 1 2.525 111.275 L 2.525 98.275 A 0.5 0.5 0 0 1 3.025 97.775 Z M 117.325 21.575 L 130.325 21.575 A 0.5 0.5 0 0 1 130.825 22.075 L 130.825 35.075 A 0.5 0.5 0 0 1 130.325 35.575 L 117.325 35.575 A 0.5 0.5 0 0 1 116.825 35.075 L 116.825 22.075 A 0.5 0.5 0 0 1 117.325 21.575 Z M 117.325 40.625 L 130.325 40.625 A 0.5 0.5 0 0 1 130.825 41.125 L 130.825 54.125 A 0.5 0.5 0 0 1 130.325 54.625 L 117.325 54.625 A 0.5 0.5 0 0 1 116.825 54.125 L 116.825 41.125 A 0.5 0.5 0 0 1 117.325 40.625 Z M 117.325 59.675 L 130.325 59.675 A 0.5 0.5 0 0 1 130.825 60.175 L 130.825 73.175 A 0.5 0.5 0 0 1 130.325 73.675 L 117.325 73.675 A 0.5 0.5 0 0 1 116.825 73.175 L 116.825 60.175 A 0.5 0.5 0 0 1 117.325 59.675 Z M 117.325 78.725 L 130.325 78.725 A 0.5 0.5 0 0 1 130.825 79.225 L 130.825 92.225 A 0.5 0.5 0 0 1 130.325 92.725 L 117.325 92.725 A 0.5 0.5 0 0 1 116.825 92.225 L 116.825 79.225 A 0.5 0.5 0 0 1 117.325 78.725 Z M 251.762 22.575 L 257.762 22.575 A 0.5 0.5 0 0 1 258.262 23.075 L 258.262 37.075 A 0.5 0.5 0 0 1 257.762 37.575 L 251.762 37.575 A 0.5 0.5 0 0 1 251.262 37.075 L 251.262 23.075 A 0.5 0.5 0 0 1 251.762 22.575 Z M 275.638 22.575 L 281.638 22.575 A 0.5 0.5 0 0 1 282.138 23.075 L 282.138 37.075 A 0.5 0.5 0 0 1 281.638 37.575 L 275.638 37.575 A 0.5 0.5 0 0 1 275.138 37.075 L 275.138 23.075 A 0.5 0.5 0 0 1 275.638 22.575 Z M 4.112 41.625 L 10.112 41.625 A 0.5 0.5 0 0 1 10.612 42.125 L 10.612 56.125 A 0.5 0.5 0 0 1 10.112 56.625 L 4.112 56.625 A 0.5 0.5 0 0 1 3.612 56.125 L 3.612 42.125 A 0.5 0.5 0 0 1 4.112 41.625 Z M 27.988 41.625 L 33.988 41.625 A 0.5 0.5 0 0 1 34.488 42.125 L 34.488 56.125 A 0.5 0.5 0 0 1 33.988 56.625 L 27.988 56.625 A 0.5 0.5 0 0 1 27.488 56.125 L 27.488 42.125 A 0.5 0.5 0 0 1 27.988 41.625 Z M 4.112 60.675 L 10.112 60.675 A 0.5 0.5 0 0 1 10.612 61.175 L 10.612 75.175 A 0.5 0.5 0 0 1 10.112 75.675 L 4.112 75.675 A 0.5 0.5 0 0 1 3.612 75.175 L 3.612 61.175 A 0.5 0.5 0 0 1 4.112 60.675 Z M 27.988 60.675 L 33.988 60.675 A 0.5 0.5 0 0 1 34.488 61.175 L 34.488 75.175 A 0.5 0.5 0 0 1 33.988 75.675 L 27.988 75.675 A 0.5 0.5 0 0 1 27.488 75.175 L 27.488 61.175 A 0.5 0.5 0 0 1 27.988 60.675 Z M 251.762 60.675 L 257.762 60.675 A 0.5 0.5 0 0 1 258.262 61.175 L 258.262 75.175 A 0.5 0.5 0 0 1 257.762 75.675 L 251.762 75.675 A 0.5 0.5 0 0 1 251.262 75.175 L 251.262 61.175 A 0.5 0.5 0 0 1 251.762 60.675 Z M 275.638 60.675 L 281.638 60.675 A 0.5 0.5 0 0 1 282.138 61.175 L 282.138 75.175 A 0.5 0.5 0 0 1 281.638 75.675 L 275.638 75.675 A 0.5 0.5 0 0 1 275.138 75.175 L 275.138 61.175 A 0.5 0.5 0 0 1 275.638 60.675 Z M 6.525 79.725 L 12.525 79.725 A 0.5 0.5 0 0 1 13.025 80.225 L 13.025 94.225 A 0.5 0.5 0 0 1 12.525 94.725 L 6.525 94.725 A 0.5 0.5 0 0 1 6.025 94.225 L 6.025 80.225 A 0.5 0.5 0 0 1 6.525 79.725 Z M 44.625 79.725 L 50.625 79.725 A 0.5 0.5 0 0 1 51.125 80.225 L 51.125 94.225 A 0.5 0.5 0 0 1 50.625 94.725 L 44.625 94.725 A 0.5 0.5 0 0 1 44.125 94.225 L 44.125 80.225 A 0.5 0.5 0 0 1 44.625 79.725 Z M 251.762 79.725 L 257.762 79.725 A 0.5 0.5 0 0 1 258.262 80.225 L 258.262 94.225 A 0.5 0.5 0 0 1 257.762 94.725 L 251.762 94.725 A 0.5 0.5 0 0 1 251.262 94.225 L 251.262 80.225 A 0.5 0.5 0 0 1 251.762 79.725 Z M 275.638 79.725 L 281.638 79.725 A 0.5 0.5 0 0 1 282.138 80.225 L 282.138 94.225 A 0.5 0.5 0 0 1 281.638 94.725 L 275.638 94.725 A 0.5 0.5 0 0 1 275.138 94.225 L 275.138 80.225 A 0.5 0.5 0 0 1 275.638 79.725 Z M 82.725 98.775 L 88.725 98.775 A 0.5 0.5 0 0 1 89.225 99.275 L 89.225 113.275 A 0.5 0.5 0 0 1 88.725 113.775 L 82.725 113.775 A 0.5 0.5 0 0 1 82.225 113.275 L 82.225 99.275 A 0.5 0.5 0 0 1 82.725 98.775 Z M 197.025 98.775 L 203.025 98.775 A 0.5 0.5 0 0 1 203.525 99.275 L 203.525 113.275 A 0.5 0.5 0 0 1 203.025 113.775 L 197.025 113.775 A 0.5 0.5 0 0 1 196.525 113.275 L 196.525 99.275 A 0.5 0.5 0 0 1 197.025 98.775 Z M 4.112 3.525 L 10.112 3.525 A 0.5 0.5 0 0 1 10.612 4.025 L 10.612 18.025 A 0.5 0.5 0 0 1 10.112 18.525 L 4.112 18.525 A 0.5 0.5 0 0 1 3.612 18.025 L 3.612 4.025 A 0.5 0.5 0 0 1 4.112 3.525 Z M 27.988 3.525 L 33.988 3.525 A 0.5 0.5 0 0 1 34.488 4.025 L 34.488 18.025 A 0.5 0.5 0 0 1 33.988 18.525 L 27.988 18.525 A 0.5 0.5 0 0 1 27.488 18.025 L 27.488 4.025 A 0.5 0.5 0 0 1 27.988 3.525 Z" vector-effect="non-scaling-stroke"/></g></svg>